<?xml version="1.0" encoding="utf-8"?>
<!-- Generator: Adobe Illustrator 19.0.0, SVG Export Plug-In . SVG Version: 6.00 Build 0)  -->
<svg version="1.1" id="Layer_1" xmlns="http://www.w3.org/2000/svg" xmlns:xlink="http://www.w3.org/1999/xlink" x="0px" y="0px"
	 width="95.6px" height="95.6px" viewBox="-257 349.4 95.6 95.6" enable-background="new -257 349.4 95.6 95.6"
	 xml:space="preserve">
<g id="XMLID_1_">
	<g id="XMLID_5_">
		<g>
			<g>
				<defs>
					<rect id="SVGID_1_" x="-257" y="349.4" width="95.6" height="95.6"/>
				</defs>
				<clipPath id="SVGID_2_">
					<use xlink:href="#SVGID_1_"  overflow="visible"/>
				</clipPath>
				<path id="XMLID_8_" clip-path="url(#SVGID_2_)" fill="#FFFFFF" d="M-209.2,444c9.7,0,19.2-3,27.1-8.6
					c7.7-5.5,13.6-13.2,16.9-22.1c3.4-9.2,3.8-19.4,1.1-28.9c-2.6-9.1-8-17.3-15.3-23.3c-7.4-6.1-16.6-9.8-26.1-10.6
					c-9.7-0.8-19.5,1.6-27.8,6.6c-8,4.9-14.5,12.2-18.4,20.7c-4.1,8.9-5.2,19.1-3.2,28.6c1.9,9.3,6.7,17.9,13.5,24.5
					c6.9,6.6,15.7,11,25.1,12.4C-214,443.8-211.6,444-209.2,444"/>
			</g>
		</g>
		<g>
			<g>
				<defs>
					<rect id="SVGID_3_" x="-257" y="349.4" width="95.6" height="95.6"/>
				</defs>
				<clipPath id="SVGID_4_">
					<use xlink:href="#SVGID_3_"  overflow="visible"/>
				</clipPath>
				<path id="XMLID_7_" clip-path="url(#SVGID_4_)" fill="none" stroke="#000000" stroke-width="2" d="M-209.2,350.4
					c9.7,0,19.2,3,27.1,8.6c7.7,5.5,13.6,13.2,16.9,22.1c3.4,9.2,3.7,19.4,1.1,28.8c-2.6,9.1-8,17.3-15.2,23.3
					c-7.4,6.1-16.6,9.8-26.2,10.6c-9.7,0.7-19.5-1.5-27.8-6.6c-8.1-4.9-14.6-12.2-18.5-20.7c-4.1-8.9-5.2-19.1-3.3-28.7
					c1.9-9.3,6.7-17.9,13.5-24.5c6.9-6.6,15.7-10.9,25-12.4C-214.1,350.6-211.7,350.4-209.2,350.4z"/>
			</g>
		</g>
	</g>
	<g enable-background="new    ">
		<path d="M-211.2,423c-5.9,0-10.2-2.5-13-7.6l4.3-3c1.1,1.9,2.5,3.6,4.4,4.5c2,0.9,4.4,1.1,6.5,0.4c4.1-1.3,4.7-5.9,4.7-9.7V375h6
			v33.3c0,3.8-0.9,7.9-3.4,10.9C-204,422-207.6,423-211.2,423z"/>
	</g>
</g>
</svg>
